Coordinates
version=1
nRows=20
nColumns=34
inDegrees=yes

Units are S.I. units (second, meters, Newtons, ...)
If the header above contains a line with 'inDegrees', this indicates whether rotational values are in degrees (yes) or radians (no).

endheader
time	pelvis_tilt	pelvis_list	pelvis_rotation	pelvis_tx	pelvis_ty	pelvis_tz	hip_flexion_r	hip_adduction_r	hip_rotation_r	knee_angle_r	ankle_angle_r	subtalar_angle_r	mtp_angle_r	hip_flexion_l	hip_adduction_l	hip_rotation_l	knee_angle_l	ankle_angle_l	subtalar_angle_l	mtp_angle_l	lumbar_extension	lumbar_bending	lumbar_rotation	arm_flex_r	arm_add_r	arm_rot_r	elbow_flex_r	pro_sup_r	arm_flex_l	arm_add_l	arm_rot_l	elbow_flex_l	pro_sup_l
      3.20000000	     -6.38113871	      2.61104749	      3.32406200	      1.93781463	      0.90265993	     -0.19982946	      6.31861818	     -9.92756156	    -12.46032024	     23.00553797	     14.14287664	     -0.87334032	      0.00000000	      9.13075696	     -8.40960729	    -15.02802705	     25.92423272	      8.81619737	     11.34197623	      0.00000000	     -0.33215641	     -3.20575896	      6.08775965	     70.99073162	     -1.60927262	      3.83375396	    109.10088416	     99.77087875	     87.94036638	     -1.80311049	     27.19755453	    105.39242630	     92.55565581
      3.21666670	     -6.44932612	      2.73386268	      3.94902866	      1.94187228	      0.91531843	     -0.19926974	      4.39761200	     -9.33348029	    -12.66772735	     19.05368765	      9.63074157	     -1.70632386	      0.00000000	      7.76413039	     -7.73002046	    -14.93834986	     22.33950897	      4.66954972	     11.43058535	      0.00000000	     -0.18512290	     -3.79905809	      6.62612429	     79.70004535	     -1.98842788	      1.88179921	     99.69848655	     98.53343104	     91.66448430	     -1.62968811	     26.27190739	    104.32054262	     92.62751541
      3.23333330	     -6.61519872	      2.88071130	      4.59410386	      1.94632584	      0.92394051	     -0.20023732	      2.83620856	     -8.90824857	    -12.81119593	     15.66175378	      5.28571874	     -2.35327573	      0.00000000	      6.70928112	     -6.98625674	    -14.66114135	     19.15360137	      0.70527471	     11.07767748	      0.00000000	      0.12360296	     -4.66306398	      7.24356130	     88.95551249	     -2.73982038	     -0.08029836	     87.25376218	     97.93870178	     95.35001464	     -0.41782117	     25.42557838	    101.58317053	     92.50892326
      3.25000000	     -6.77437025	      3.03451623	      5.20230972	      1.95070576	      0.92876131	     -0.20146964	      1.57596826	     -8.67063383	    -12.97650020	     12.98198192	      1.22836675	     -2.99328892	      0.00000000	      5.86993601	     -6.24697379	    -14.27421088	     16.50400954	     -2.82961195	     10.43334422	      0.00000000	      0.29753371	     -5.54062735	      8.00287948	     99.80710308	     -3.39425687	     -1.43578737	     70.45094805	     97.76311812	     99.08910542	      1.30779839	     24.77827870	     98.31669359	     92.15038549
      3.26666670	     -7.03497621	      3.11832987	      5.71932220	      1.95502695	      0.93076597	     -0.20158719	      0.75221130	     -8.50540185	    -13.13236301	     11.00354473	     -2.29780799	     -3.51867208	      0.00000000	      5.25919115	     -5.59290069	    -13.70786945	     14.21154504	     -5.82696988	      9.54557082	      0.00000000	      0.30335857	     -6.40424616	      8.94667459	    111.98748911	     -3.84741896	     -1.55985395	     50.94069293	     97.93383558	    103.02038624	      3.58047113	     24.40134415	     95.04009614	     91.37716409
      3.28333330	     -7.44851470	      3.14994840	      6.10932823	      1.95961672	      0.93191103	     -0.20005159	      0.29761347	     -8.34618213	    -13.21541970	      9.43307368	     -5.47549686	     -3.87148998	      0.00000000	      4.92064762	     -5.09350594	    -13.10546357	     12.26186119	     -8.59948520	      8.51073525	      0.00000000	      0.30335691	     -7.43280364	     10.09097378	    123.85032508	     -4.87415904	      0.36097714	     33.10434475	     98.01597347	    106.95068730	      5.91585280	     24.21048044	     91.86364440	     90.25016525
      3.30000000	     -7.94205910	      3.10556870	      6.34286605	      1.96497235	      0.93123611	     -0.19771028	      0.09569134	     -8.14032877	    -13.27527100	      8.20882059	     -8.29337895	     -4.16346218	      0.00000000	      4.65850752	     -4.79651626	    -12.49076901	     10.46125066	    -11.05640796	      7.68075982	      0.00000000	      0.39107282	     -8.30333702	     11.30077970	    134.53014329	     -6.10250374	      7.11847855	     19.07069122	     97.23173929	    110.49785537	      7.60667440	     24.06950905	     89.71065278	     88.70537431
      3.31666670	     -8.91367679	      3.07239209	      6.39364501	      1.97057906	      0.93051651	     -0.19566294	      0.72472224	     -8.06912724	    -13.16626483	      7.57362598	    -10.55867093	     -4.61923304	      0.00000000	      4.99605602	     -4.54236021	    -11.56224283	      9.01774341	    -13.34257361	      6.45973023	      0.00000000	      1.31790473	     -9.03503815	     13.15049758	    144.54282046	     -7.28960685	     50.65429816	      5.90975104	     48.57965886	    113.36281472	      8.53662591	     24.68010921	     87.69692626	     82.37448732
      3.33333330	     -9.64858428	      3.09595958	      6.40863854	      1.97610006	      0.93098024	     -0.19451089	      1.03882887	     -8.01280254	    -12.85049231	      6.87579556	    -12.71536719	     -5.02402591	      0.00000000	      5.04420882	     -4.32475383	    -10.45594254	      7.72081229	    -15.38733390	      5.24205626	      0.00000000	      2.11696364	     -9.83170262	     13.60522974	    148.91773975	     -7.56380013	     50.97655419	      5.55880581	     48.70532047	    115.72454565	      8.25635313	     25.21384461	     87.48990426	     82.76630712
      3.35000000	    -10.43252444	      3.03359865	      6.42317306	      1.98166278	      0.93111172	     -0.19370538	      1.51451140	     -7.94713762	    -12.93431712	      6.39746037	    -14.67773955	     -4.79789244	      0.00000000	      5.27102782	     -4.28910509	     -9.96858502	      6.72308054	    -17.09865990	      5.02531825	      0.00000000	      3.14621552	    -10.23411945	     13.70565170	    152.08935397	     -7.24315548	     51.20443368	      6.53736171	     48.81768485	    117.00634845	      7.62074017	     25.05466493	     87.66239346	     82.94172133
      3.36666670	    -10.84225453	      3.02784490	      6.40867174	      1.98765442	      0.93194359	     -0.19242209	      1.52241492	     -7.82845203	    -12.22779808	      5.85369925	    -16.40685609	     -5.59659918	      0.00000000	      5.05298756	     -4.16247397	     -8.59879573	      5.75721181	    -18.78520292	      3.16294325	      0.00000000	      3.44612669	    -10.54510498	     13.67832861	    155.09980795	     -6.79604084	     51.89718758	      8.98274189	     49.25940948	    118.10702990	      6.63511242	     25.16272940	     89.36709273	     83.53177607
      3.38333330	    -11.17870464	      2.90914279	      6.32885839	      1.99432862	      0.93403373	     -0.19137556	      1.54597404	     -7.62687109	    -11.89552457	      5.56358112	    -17.88202614	     -5.70780339	      0.00000000	      4.72127167	     -4.18896795	     -7.80439180	      4.82898410	    -20.13645715	      2.18338622	      0.00000000	      3.88507179	    -10.44618123	     13.53938685	    157.08735964	     -5.97196351	     52.34704824	     11.97594854	     49.81303531	    117.99215522	      5.18387392	     25.37734462	     91.71537248	     84.26097703
      3.40000000	    -11.32690427	      2.83287707	      6.16382049	      2.00124648	      0.93592400	     -0.19110859	      1.40106653	     -7.47092298	    -11.65568012	      5.44321621	    -18.94708173	     -5.59159339	      0.00000000	      4.18275612	     -4.17001526	     -7.23892990	      4.14060834	    -21.04005960	      1.34167748	      0.00000000	      4.14156939	    -10.21155563	     13.47733623	    158.49815259	     -5.13086250	     52.38633078	     15.10628227	     50.52938359	    117.17618490	      3.42121383	     25.84656555	     94.67216211	     85.13613269
      3.41666670	    -11.31562322	      2.70141727	      5.89931101	      2.00797532	      0.93589928	     -0.19162668	      1.04669091	     -7.26402550	    -11.54423866	      5.39696174	    -19.68587130	     -5.38563088	      0.00000000	      3.46324018	     -4.16122015	     -7.11767358	      3.59990930	    -21.50325244	      0.59762337	      0.00000000	      4.23169751	     -9.82049235	     13.62519831	    159.50127447	     -4.34800419	     52.12544763	     17.87805315	     51.33033606	    116.07418395	      1.92505415	     26.56142189	     97.51413837	     85.96881563
      3.43333330	    -11.60932464	      2.63703103	      5.74142580	      2.01450267	      0.93318185	     -0.19251585	      1.02848851	     -7.25023391	    -11.78430386	      5.62776145	    -19.94114023	     -5.14326417	      0.00000000	      3.01541001	     -3.96070605	     -6.92559736	      3.14288298	    -21.52694696	     -0.31324209	      0.00000000	      5.09421336	     -9.85924308	     12.98629037	    157.63555443	     -4.71257780	     42.86206845	     23.57735589	     61.79682987	    114.89511884	      0.24299126	     27.78499521	     99.21108173	     94.46987825
      3.45000000	    -11.20857549	      2.62447347	      5.58297272	      2.02007808	      0.93016458	     -0.19319378	      0.16603775	     -7.21315785	    -11.73237818	      5.75731979	    -19.97566301	     -5.35327251	      0.00000000	      1.98127259	     -3.79602116	     -7.17272128	      3.14590148	    -21.11365163	     -1.01880726	      0.00000000	      4.43822191	     -9.42845953	     12.90177261	    158.37226430	     -3.90147437	     43.17113155	     24.91340214	     63.21982032	    113.43118758	     -1.27199911	     27.21744927	    101.76041550	     94.62023194
      3.46666670	    -11.06840902	      2.52703498	      5.34152994	      2.02632611	      0.92727992	     -0.19432576	     -0.47536088	     -7.13686928	    -11.49254759	      5.80585893	    -19.59571834	     -5.27124260	      0.00000000	      1.13997432	     -3.69532166	     -7.39269872	      3.13091462	    -20.51319768	     -1.91425755	      0.00000000	      4.37334384	     -8.99933997	     12.89763265	    158.11775973	     -3.85786280	     43.51968762	     26.81963908	     64.43161975	    111.64876434	     -2.95312038	     27.08254946	    103.63398744	     94.79163520
      3.48333330	    -10.96351018	      2.55826428	      5.19426556	      2.03320166	      0.92593979	     -0.19699982	     -1.09081447	     -7.25750128	    -11.47260555	      5.90541489	    -19.21701268	     -5.19828223	      0.00000000	      0.46594874	     -3.48440972	     -7.66694319	      3.41875927	    -19.83060335	     -2.75286352	      0.00000000	      4.27384322	     -8.70805433	     12.59761390	    157.23349685	     -4.08467309	     43.72225850	     29.98636815	     66.07664845	    109.49088220	     -4.66646717	     26.71418690	    105.80607106	     95.02249938
      3.50000000	    -11.06157511	      2.55342994	      4.96634913	      2.04050489	      0.92450117	     -0.20108153	     -1.48737203	     -7.42137265	    -11.31118778	      6.03029938	    -18.62636457	     -4.86809075	      0.00000000	      0.10287385	     -3.31637561	     -7.75879504	      4.00069229	    -18.72585973	     -3.38255918	      0.00000000	      4.85405250	     -8.60693607	     11.69836794	    153.13417916	     -4.19178045	     32.62855818	     35.35040193	     93.15513443	    107.11313799	     -6.64526152	     27.15890523	    107.31106511	     98.67588564
      3.51666670	    -10.76888914	      2.56088231	      4.75743614	      2.04693153	      0.92283001	     -0.20604054	     -2.38096638	     -7.61990828	    -11.16888908	      6.01170502	    -18.14096109	     -4.73888343	      0.00000000	     -0.64228262	     -3.11649700	     -7.84933820	      4.65608714	    -17.71123684	     -3.73210659	      0.00000000	      4.40174980	     -8.25961965	     11.58898340	    151.84005641	     -5.35216711	     34.34105659	     39.94415345	     93.98099512	    104.83590588	     -7.86153250	     27.36270368	    109.21829498	     98.54617420
